<svg id="Layer_1" data-name="Layer 1" xmlns="http://www.w3.org/2000/svg" viewBox="0 0 127.76 47.12"><path d="M9.29,53.27V22.54h6.49V47.91H29v5.36Z" transform="translate(-9.29 -6.57)"/><path d="M58.61,37.9a17.9,17.9,0,0,1-1.9,8.56,13.33,13.33,0,0,1-5.16,5.38,15.45,15.45,0,0,1-14.68,0,13.27,13.27,0,0,1-5.15-5.39,17.84,17.84,0,0,1-1.89-8.54,17.88,17.88,0,0,1,1.89-8.55A13.24,13.24,0,0,1,36.87,24a15.49,15.49,0,0,1,14.68,0,13.33,13.33,0,0,1,5.16,5.38A17.88,17.88,0,0,1,58.61,37.9ZM52,37.9a13.73,13.73,0,0,0-1-5.49A7.44,7.44,0,0,0,48.33,29a7.92,7.92,0,0,0-8.22,0,7.52,7.52,0,0,0-2.73,3.39,13.91,13.91,0,0,0-1,5.49,13.93,13.93,0,0,0,1,5.5,7.52,7.52,0,0,0,2.73,3.39,7.92,7.92,0,0,0,8.22,0,7.44,7.44,0,0,0,2.72-3.39A13.75,13.75,0,0,0,52,37.9Z" transform="translate(-9.29 -6.57)"/><path d="M82.09,32.47a6.88,6.88,0,0,0-.88-1.94,5.76,5.76,0,0,0-1.39-1.44A6.32,6.32,0,0,0,78,28.18a8,8,0,0,0-2.3-.31A7.38,7.38,0,0,0,71.52,29a7.66,7.66,0,0,0-2.76,3.4,13.32,13.32,0,0,0-1,5.44,13.71,13.71,0,0,0,1,5.46,7.53,7.53,0,0,0,2.76,3.42,7.46,7.46,0,0,0,4.22,1.18,8.23,8.23,0,0,0,3.77-.79,5.5,5.5,0,0,0,2.4-2.22,6.65,6.65,0,0,0,.83-3.41l1.32.2H76.12v-4.9H89V40.7a13.46,13.46,0,0,1-1.71,6.95,11.59,11.59,0,0,1-4.71,4.47,14.56,14.56,0,0,1-6.87,1.57,14.8,14.8,0,0,1-7.59-1.91A13.17,13.17,0,0,1,63,46.33a18.17,18.17,0,0,1-1.82-8.4,18.91,18.91,0,0,1,1.09-6.66,14.07,14.07,0,0,1,3-5,13.23,13.23,0,0,1,4.58-3.1,14.8,14.8,0,0,1,5.65-1.07,15,15,0,0,1,4.86.76,13,13,0,0,1,4,2.14,11.59,11.59,0,0,1,2.86,3.27,11.46,11.46,0,0,1,1.43,4.18Z" transform="translate(-9.29 -6.57)"/><path d="M120.4,37.9a17.9,17.9,0,0,1-1.89,8.56,13.28,13.28,0,0,1-5.17,5.38,15.45,15.45,0,0,1-14.68,0,13.24,13.24,0,0,1-5.14-5.39,17.84,17.84,0,0,1-1.89-8.54,17.88,17.88,0,0,1,1.89-8.55A13.22,13.22,0,0,1,98.66,24a15.49,15.49,0,0,1,14.68,0,13.28,13.28,0,0,1,5.17,5.38A17.88,17.88,0,0,1,120.4,37.9Zm-6.58,0a13.9,13.9,0,0,0-1-5.49A7.46,7.46,0,0,0,110.12,29a7.92,7.92,0,0,0-8.22,0,7.5,7.5,0,0,0-2.72,3.39,13.9,13.9,0,0,0-1,5.49,13.92,13.92,0,0,0,1,5.5,7.5,7.5,0,0,0,2.72,3.39,7.92,7.92,0,0,0,8.22,0,7.46,7.46,0,0,0,2.73-3.39A13.92,13.92,0,0,0,113.82,37.9Z" transform="translate(-9.29 -6.57)"/><circle cx="119.01" cy="8.75" r="8.75"/></svg>