<?xml version="1.0" encoding="utf-8"?>
<!-- Generator: Adobe Illustrator 26.0.3, SVG Export Plug-In . SVG Version: 6.00 Build 0)  -->
<svg version="1.1" id="Layer_1" xmlns="http://www.w3.org/2000/svg" xmlns:xlink="http://www.w3.org/1999/xlink" x="0px" y="0px"
	 viewBox="0 0 600 200" style="enable-background:new 0 0 600 200;" xml:space="preserve">
<style type="text/css">
	.st0{fill:#FCFCFC;}
</style>
<g>
	<path class="st0" d="M57.4,155.3L32.6,73.6h13.2l17.6,62.5h0.9l17.4-62.5h13.4l17.2,62.3h0.8l17.7-62.3H144l-24.9,81.7h-12.3
		L88.9,92.6h-1.3l-17.9,62.7H57.4z"/>
	<path class="st0" d="M192.1,157c-7.9,0-14.6-1.7-20.3-5.2c-5.7-3.5-10.3-8.6-13.1-14.7c-3.1-6.3-4.6-13.6-4.6-22
		c-0.2-7.6,1.4-15.2,4.6-22.1c2.8-6.1,7.3-11.3,12.9-15c5.8-3.7,12.5-5.6,19.3-5.4c4.3,0,8.5,0.7,12.6,2.1c4.2,1.5,8.1,3.8,11.3,6.9
		c3.6,3.5,6.4,7.8,8.1,12.6c2,5.2,3,11.6,3,19.2v5.3h-62.9v-10.8h50.2c0.1-4.3-0.9-8.5-2.7-12.3c-1.7-3.5-4.4-6.5-7.8-8.6
		c-3.6-2.1-7.7-3.2-11.8-3.1c-4.6-0.1-9.1,1.2-12.9,3.7c-3.6,2.4-6.5,5.7-8.4,9.6c-1.9,3.9-2.9,8.3-2.9,12.7v7.2
		c0,6.2,1.1,11.4,3.2,15.7c2,4.1,5.1,7.5,9,9.7c4.1,2.3,8.7,3.4,13.3,3.3c3,0,6.1-0.4,9-1.4c2.6-0.9,5-2.3,6.9-4.3
		c2-2,3.6-4.4,4.5-7.1l12.1,3.4c-1.2,4.1-3.5,7.8-6.4,10.8c-3.2,3.2-7,5.7-11.2,7.2C202.2,156.2,197.2,157.1,192.1,157z"/>
	<path class="st0" d="M246.7,155.3V46.4h12.5v40.2h1.1c0.9-1.4,2.2-3.2,3.9-5.4c1.9-2.5,4.4-4.5,7.1-6c3.1-1.8,7.3-2.6,12.6-2.6
		c6.4-0.1,12.8,1.7,18.2,5.2c5.4,3.6,9.7,8.7,12.3,14.6c2.9,6.3,4.4,13.8,4.4,22.3c0,8.6-1.5,16.1-4.4,22.5
		c-2.6,5.9-6.9,11-12.2,14.7c-5.4,3.5-11.6,5.3-18,5.2c-5.2,0-9.4-0.9-12.6-2.6c-2.8-1.5-5.3-3.5-7.3-6c-1.7-2.2-3-4.1-3.9-5.6h-1.5
		v12.5H246.7z M259,114.5c-0.1,5.6,0.8,11.1,2.7,16.3c1.6,4.3,4.3,8.2,7.9,11c7.8,5.4,18.2,5.3,25.9-0.2c3.6-3,6.4-6.9,8-11.3
		c1.8-5.1,2.8-10.4,2.7-15.8c0.1-5.3-0.8-10.6-2.6-15.6c-1.5-4.3-4.3-8.2-7.9-11c-3.5-2.7-7.9-4.1-13.3-4.1
		c-4.6-0.2-9.1,1.2-12.9,3.9c-3.6,2.7-6.3,6.5-7.9,10.7C259.8,103.6,258.9,109,259,114.5L259,114.5z"/>
	<path class="st0" d="M395.8,91.9l-11.3,3.2c-0.8-2-1.8-3.8-3.1-5.5c-1.5-1.9-3.4-3.4-5.6-4.4c-2.8-1.3-5.9-1.9-9-1.8
		c-5,0-9.2,1.1-12.5,3.4s-5,5.2-5,8.7c-0.1,2.9,1.1,5.6,3.4,7.4c2.3,1.8,5.8,3.3,10.6,4.5l12.1,3c7.3,1.8,12.7,4.5,16.3,8.1
		s5.4,8.3,5.4,14c0.1,4.5-1.4,8.9-4,12.5c-2.9,3.9-6.7,6.9-11.2,8.7c-5.3,2.2-11,3.3-16.7,3.2c-8.3,0-15.2-1.8-20.7-5.4
		s-8.9-8.9-10.4-15.8l11.9-3c0.9,4,3.2,7.5,6.5,9.9c3.2,2.2,7.3,3.3,12.5,3.3c5.8,0,10.5-1.2,14-3.7c3.5-2.5,5.2-5.5,5.2-9
		c0.1-2.7-1-5.3-3-7.2c-2-1.9-5-3.4-9.1-4.3l-13.6-3.2c-7.5-1.8-13-4.5-16.5-8.3c-3.5-3.8-5.4-8.9-5.2-14.1
		c-0.1-4.4,1.3-8.7,3.9-12.2c2.8-3.7,6.5-6.6,10.7-8.4c4.9-2.1,10.1-3.1,15.4-3c8.1,0,14.4,1.8,19.1,5.3
		C390.5,81.4,394,86.3,395.8,91.9z"/>
	<path class="st0" d="M422.6,60c-2.3,0-4.6-0.9-6.3-2.5c-3.3-3.1-3.5-8.2-0.5-11.6c0.1-0.2,0.3-0.3,0.5-0.5c3.5-3.3,9.1-3.3,12.6,0
		c3.3,3.1,3.5,8.2,0.5,11.5c-0.1,0.2-0.3,0.3-0.5,0.5C427.2,59.2,424.9,60.1,422.6,60z M416.2,155.3V73.6h12.5v81.7H416.2z"/>
	<path class="st0" d="M487.2,73.6v10.6h-42.3V73.6H487.2z M457.2,54.1h12.5v77.8c0,3.5,0.5,6.2,1.6,7.9c0.9,1.6,2.3,2.9,4,3.5
		c1.7,0.6,3.5,0.9,5.2,0.9c1.1,0,2.3-0.1,3.4-0.2c0.9-0.2,1.6-0.3,2.1-0.4l2.6,11.3c-3,1.1-6.2,1.6-9.4,1.5c-3.6,0-7.1-0.8-10.4-2.3
		c-3.4-1.5-6.3-3.9-8.4-7c-2.3-3.5-3.5-7.6-3.3-11.8L457.2,54.1z"/>
	<path class="st0" d="M539.5,157c-7.9,0-14.6-1.7-20.3-5.2c-5.7-3.5-10.3-8.6-13.1-14.7c-3.1-6.3-4.6-13.6-4.6-22
		c-0.2-7.6,1.4-15.2,4.6-22.1c2.8-6.1,7.3-11.3,12.9-15c5.8-3.7,12.5-5.6,19.3-5.4c4.3,0,8.5,0.7,12.6,2.1c4.2,1.5,8.1,3.8,11.3,6.9
		c3.6,3.5,6.4,7.8,8.1,12.6c2,5.2,3,11.6,3,19.2v5.3h-62.9v-10.8h50.2c0.1-4.3-0.9-8.5-2.7-12.3c-1.7-3.5-4.4-6.5-7.8-8.6
		c-3.6-2.1-7.7-3.2-11.8-3.1c-4.6-0.1-9.1,1.2-12.9,3.7c-3.6,2.4-6.5,5.7-8.4,9.6c-1.9,3.9-2.9,8.3-2.9,12.7v7.2
		c0,6.2,1.1,11.4,3.2,15.7c2,4.1,5.1,7.5,9,9.7c4.1,2.3,8.7,3.4,13.3,3.3c3,0,6.1-0.4,9-1.4c2.6-0.9,5-2.3,6.9-4.3
		c2-2,3.6-4.4,4.5-7.1l12.1,3.4c-1.2,4.1-3.5,7.8-6.4,10.8c-3.2,3.2-7,5.7-11.2,7.2C549.7,156.2,544.6,157.1,539.5,157z"/>
</g>
</svg>
